<svg xmlns="http://www.w3.org/2000/svg" xmlns:xlink="http://www.w3.org/1999/xlink" width="18" height="18" viewBox="0 0 18 18">
    <defs>
        <path id="a" d="M9.474 0H18v9.474H9.474z"/>
    </defs>
    <g fill="none" fill-rule="evenodd">
        <path fill="#DEE4F7" d="M9 18A9 9 0 1 1 9 0a9 9 0 0 1 0 18zm0-2.643A6.357 6.357 0 1 0 9 2.643a6.357 6.357 0 0 0 0 12.714z"/>
        <mask id="b" fill="#fff">
            <use xlink:href="#a"/>
        </mask>
        <path fill="#3C83EC" d="M9 18A9 9 0 1 1 9 0a9 9 0 0 1 0 18zm0-2.643A6.357 6.357 0 1 0 9 2.643a6.357 6.357 0 0 0 0 12.714z" mask="url(#b)"/>
    </g>
</svg>
